PathFileType	4	(X/Y/Z)	C:/Users/beibeiliu/ov580/test_trc/User1\sequence.3_training_dense_right.trc
DataRate	CameraRate	NumFrames	NumMarkers	Units	OrigDataRate	OrigDataStartFrame	OrigNumFrames
120	120	16	19	mm	120	91	242
Frame#	Time	ThumbCMC			ThumbMCP			ThumbIP			ThumbTip			IndexMCP			IndexPIP			IndexTip			MiddleMCP			MiddlePIP			MiddleTip			RingMCP			RingPIP			RingTip			PinkyMCP			PinkyPIP			PinkyTip			BackHand1			BackHand2			BackHand3	
		X0	Y0	Z0	X1	Y1	Z1	X2	Y2	Z2	X3	Y3	Z3	X4	Y4	Z4	X5	Y5	Z5	X6	Y6	Z6	X7	Y7	Z7	X8	Y8	Z8	X9	Y9	Z9	X10	Y10	Z10	X11	Y11	Z11	X12	Y12	Z12	X13	Y13	Z13	X14	Y14	Z14	X15	Y15	Z15	X16	Y16	Z16	X17	Y17	Z17	X18	Y18	Z18	
90	0.75	108.44	65.7	12.8671	70.6266	55.1513	8.63731	50.8249	32.3144	0.249767	41.8439	5.87975	3.52725	73.7752	9.46187	-41.1912	57.3118	-6.27904	-19.2295	68.2805	13.1774	8.17293	91.7997	-16.0632	-35.2681	64.5897	-21.6464	-11.3341	75.7572	0.538942	17.6902	101.368	-30.8718	-17.64	78.4288	-26.7164	10.2945	91.6909	-1.88797	27.9834	117.931	-36.7607	-0.914	96.122	-30.5407	19.7583	102.456	-0.887698	25.5281	149.178	8.53324	-12.1285	168.83	31.4461	14.7572	139.756	47.4937	-10.9249	
91	0.758333	111.899	62.9332	9.8196	71.4859	59.4879	4.03527	53.5664	40.7096	1.47816	37.8151	15.3055	1.8568	73.8726	8.52123	-41.7116	49.7272	1.85537	-18.9022	65.6417	20.0036	5.62274	83.6765	-15.415	-35.194	56.3467	-16.7328	-9.6075	70.996	5.92323	16.7551	90.5281	-30.0828	-18.1686	69.3757	-25.6952	10.6965	81.6885	-1.17013	25.2216	109.107	-40.3375	2.18089	85.4143	-27.5888	19.0116	95.0058	-0.4652	26.2628	145.947	1.96718	-10.3371	167.062	21.5848	15.6665	140.936	43.0359	-7.80481	
92	0.766667	112.116	63.3229	6.02809	76.9025	60.7698	2.59443	51.8192	46.8459	-3.17038	40.392	21.3279	-0.549928	70.8202	13.1424	-43.7378	44.86	8.41604	-22.215	63.6767	25.3066	2.6752	77.7887	-13.5552	-36.3923	49.1044	-10.0217	-14.0518	64.776	6.2649	15.5843	82.6171	-27.6051	-18.5681	59.8123	-24.3427	4.23564	78.2705	1.5169	26.2563	94.556	-40.2248	2.63974	74.2982	-27.6896	15.2128	87.6943	2.49575	26.7792	141.788	-3.0884	-6.2935	164.258	14.0752	19.4637	139.872	36.842	-6.70856	
93	0.775	116.063	62.1477	4.18699	78.3714	67.5415	-1.04453	52.6005	49.8529	-10.2662	33.9146	29.1506	-4.52201	70.8264	14.4458	-46.1281	42.0375	14.929	-29.4808	62.8325	30.9347	-1.24241	73.9053	-9.0258	-38.4859	43.1961	-6.10351	-14.1091	60.0232	15.8455	12.1273	74.0443	-26.1689	-18.5066	51.4265	-17.8007	1.15044	64.6635	5.01322	20.5517	85.4283	-36.3586	2.67638	63.176	-23.4678	16.5377	79.4576	4.04203	28.3101	135.024	-10.2654	-3.94541	157.78	11.7788	21.7248	139.857	30.4078	-10.58	
94	0.783333	120.887	61.7692	5.38505	85.1482	73.0449	-4.51073	55.4969	59.6974	-14.8829	37.4066	35.902	-8.09671	69.3176	14.6339	-47.1472	41.2614	21.1086	-29.9863	58.6875	40.5279	-7.47761	67.895	-7.30896	-39.5191	38.4391	2.97161	-19.2374	56.3912	22.5616	9.37197	66.5334	-23.928	-19.601	43.9963	-11.3785	-0.256115	59.6385	8.79531	21.3661	78.6587	-30.2541	1.28446	55.2233	-15.1488	12.0338	73.6997	10.6145	27.4467	127.607	-12.1295	-0.519487	149.759	1.61033	21.1447	141.435	28.7908	-7.7741	
95	0.791667	124.441	62.8483	1.02342	91.913	78.2017	-10.3867	60.5789	66.6007	-20.628	43.6143	47.9414	-13.0713	72.5749	22.0734	-51.5043	42.1837	29.2163	-35.9924	59.7543	46.3744	-11.8295	67.0115	-4.75605	-40.077	35.6359	11.3696	-26.815	51.7041	27.8491	5.02687	63.5209	-16.702	-23.1061	38.3387	-1.17919	-6.9488	55.3732	16.9793	16.443	68.6869	-25.4319	-1.00278	48.0319	-6.51902	11.0622	66.2631	13.7753	24.931	123.826	-11.765	-1.0585	146.121	-1.94661	23.0706	137.568	20.3608	-7.95343	
96	0.8	129.236	61.2012	-1.25628	97.7993	73.8955	-13.8573	71.1533	71.7646	-22.668	46.06	55.7631	-18.115	73.9066	25.306	-55.2645	44.9201	36.4544	-45.7357	59.8962	48.6471	-14.0171	61.7653	3.24233	-46.2761	34.6803	17.1615	-30.3069	49.6181	35.8931	-1.82898	59.5289	-13.5884	-23.4986	35.3075	9.0628	-8.59242	55.5797	26.7574	10.6371	62.7271	-24.6108	-0.357451	45.3242	1.45353	4.24906	59.9151	20.373	21.8378	119.189	-11.2958	1.09164	141.367	-3.25704	22.8533	139.812	19.5517	-5.00101	
97	0.808333	132.108	59.5868	-0.628933	105.148	74.2967	-14.8577	77.8269	78.2308	-27.4129	51.5272	60.8578	-22.6027	77.2278	22.6863	-56.3695	48.8195	37.8556	-49.3049	62.8787	54.0197	-21.0654	62.9374	6.14939	-50.1153	37.5743	25.2848	-39.1288	53.7541	41.8389	-5.74236	54.4295	-7.89681	-28.5084	33.3835	11.2838	-15.3692	51.9571	27.3494	8.62863	59.9993	-17.5575	-5.43868	39.4502	5.10515	2.65616	59.8718	24.1056	20.5921	112.77	-14.5284	1.16805	137.224	-7.85499	24.3699	137.946	16.7088	-6.04168	
98	0.816667	136.879	57.5409	3.30823	111.926	77.5063	-14.5771	85.1131	75.4593	-28.3268	54.7314	64.444	-28.0286	81.6678	21.3343	-58.1253	52.2954	36.2851	-54.9455	65.2246	60.1502	-29.7775	64.8965	5.3214	-51.407	38.9709	29.7032	-42.0131	54.1008	46.6084	-13.9619	57.6587	-6.75709	-30.8085	34.5332	15.8967	-23.3396	50.7131	31.4996	0.92255	56.7406	-18.2383	-5.42914	40.9008	10.7546	-7.02698	58.5049	26.3095	12.0856	112.329	-12.0539	2.14783	133.647	-9.49401	30.0618	136.875	15.1814	-6.2684	
99	0.825	138.853	54.6349	2.47838	115.915	74.6733	-16.0133	88.9673	75.4123	-33.826	59.1764	65.9314	-33.1058	87.8902	23.3262	-61.8017	59.2439	36.7803	-65.2185	67.0553	60.7607	-36.3362	69.4512	8.83436	-56.4315	43.8349	30.3279	-50.2997	58.4734	50.2658	-19.8487	57.2787	-2.85347	-36.175	35.2772	20.614	-27.2737	51.9077	33.5177	-2.59553	52.9726	-14.2233	-11.4811	36.2932	11.8847	-10.0951	57.4038	32.106	6.73151	106.893	-13.3348	1.01131	128.286	-12.4245	31.2225	136.294	13.4186	-2.42408	
100	0.833333	139.4	51.229	5.68487	121.743	75.1628	-18.276	97.0831	77.6273	-34.5649	68.8766	64.1506	-35.5989	91.989	19.743	-62.265	64.1003	37.9995	-70.1661	67.3533	59.6907	-44.3781	73.19	7.65314	-57.1406	47.6414	32.1087	-55.1038	60.5526	50.5808	-25.5739	60.8472	-3.00206	-39.8065	38.9833	24.5727	-37.188	56.6572	37.4732	-8.15924	56.472	-11.1392	-15.4232	40.2481	13.295	-21.5617	54.0916	33.6559	1.65206	107.703	-11.3172	1.33448	123.101	-13.1262	31.8189	136.927	9.25326	-0.661428	
101	0.841667	141.126	50.5602	4.01679	123.658	69.7252	-18.7322	101.847	74.7955	-41.3468	74.2505	69.3618	-43.1927	100.564	20.2275	-67.7732	74.4651	36.0641	-76.7892	75.9179	61.278	-48.4497	78.4161	6.89369	-62.2313	56.9023	31.5164	-64.5933	67.9114	52.0363	-29.8021	66.7067	-0.994551	-46.9482	44.5992	24.4949	-45.7333	57.5294	39.8145	-17.7231	60.3221	-9.17859	-19.9592	42.9003	14.4582	-28.5087	53.9925	37.1893	-8.03802	106.284	-12.5483	5.21858	121.119	-9.79159	34.165	135.44	6.80574	2.53417	
102	0.85	140.129	46.7758	8.51898	128.786	70.1234	-18.1376	108.122	73.8589	-43.2314	82.0974	68.1096	-46.145	108.564	16.0101	-65.0198	82.7366	32.0912	-78.9286	83.4984	58.569	-52.9806	87.0549	3.66846	-62.9991	62.9957	31.0003	-68.3028	72.5252	48.6278	-31.7067	71.5025	-5.01423	-47.5886	51.0774	21.4397	-54.8356	58.6276	39.5988	-26.371	61.5912	-10.5421	-27.3211	46.3198	11.2412	-37.4884	52.1792	36.1969	-18.2599	106.186	-14.3987	0.328488	117.901	-12.533	37.2091	135.571	4.70236	6.26233	
103	0.858333	143.94	47.8849	11.8355	132.009	67.2111	-16.6007	115.158	69.4446	-41.1142	86.4271	63.0634	-53.8784	113.359	12.397	-66.0221	93.5569	34.1233	-81.08	96.4164	58.647	-55.5299	92.8882	0.636683	-63.2195	74.6136	29.8574	-73.4347	79.8858	49.0195	-41.0177	78.2695	-6.2875	-53.5448	58.3087	17.3741	-61.0606	61.5624	36.9357	-33.3432	64.5668	-13.6379	-30.8777	53.71	7.04419	-46.4487	55.6972	36.1408	-30.0023	105.555	-16.6749	3.22651	116.591	-12.2848	37.3836	140.15	5.75329	8.6716	
104	0.866667	141.547	44.8611	15.7219	137.787	66.9369	-18.2369	122.117	65.6129	-43.1689	98.2218	61.6408	-55.8678	128.214	11.471	-64.3547	106.217	31.3479	-83.5619	103.726	52.9863	-55.1356	106.302	-0.473944	-67.6354	83.7803	23.9702	-77.3702	84.5095	44.7614	-44.181	85.62	-10.4303	-54.3905	69.2453	17.2448	-67.1687	67.4619	33.8373	-36.9975	72.7584	-16.2516	-30.8763	60.2813	3.27677	-51.7387	63.6281	35.548	-35.5726	109.241	-16.384	7.64607	113.283	-11.2627	40.8078	136.992	4.02027	14.1753	
105	0.875	145.85	43.5734	16.5353	142.391	64.3299	-16.3512	131.163	64.5365	-45.8311	106.567	56.2889	-60.2897	136.859	7.26473	-63.355	119.026	25.2775	-82.531	114.479	49.4552	-58.3833	115.533	-5.08354	-65.1637	97.1236	17.4102	-80.623	94.3764	42.141	-48.027	96.9253	-12.251	-57.5658	81.2831	13.7233	-70.5481	77.5387	32.7879	-45.6153	80.2685	-18.4291	-33.4141	71.7432	2.26005	-55.8033	70.3988	30.3859	-43.9761	111.824	-17.251	5.75333	115.828	-11.2125	40.4299	142.318	4.17055	14.1737	
